<?xml version="1.0" standalone="no"?>
<!DOCTYPE svg PUBLIC "-//W3C//DTD SVG 20010904//EN"
 "http://www.w3.org/TR/2001/REC-SVG-20010904/DTD/svg10.dtd">
<svg version="1.0" xmlns="http://www.w3.org/2000/svg"
 width="512.000000pt" height="512.000000pt" viewBox="0 0 512.000000 512.000000"
 preserveAspectRatio="xMidYMid meet">

<g transform="translate(0.000000,512.000000) scale(0.100000,-0.100000)"
fill="#ffffff" stroke="none">
<path d="M1692 4830 c-130 -34 -198 -84 -179 -133 2 -7 123 -92 268 -189 432
-288 701 -498 912 -710 l119 -119 -66 -69 c-36 -37 -66 -76 -66 -86 0 -9 50
-68 112 -131 l112 -114 -824 -824 -824 -824 -57 54 c-32 30 -66 55 -76 55 -11
0 -180 -162 -410 -392 -428 -429 -432 -434 -433 -543 0 -101 25 -137 221 -331
153 -151 180 -173 228 -189 62 -20 138 -16 198 11 49 22 823 791 823 817 0 10
-26 45 -57 78 l-57 60 824 824 825 825 110 -110 c80 -80 117 -110 135 -110 16
0 43 19 81 56 l56 56 97 -92 c217 -208 477 -542 780 -1002 127 -192 139 -208
166 -208 35 0 67 42 102 135 19 52 22 80 23 210 0 133 -3 162 -28 259 -81 310
-277 694 -549 1072 l-90 126 56 57 c31 31 56 65 56 76 0 13 -148 168 -413 433
-319 319 -418 412 -437 412 -16 0 -41 -17 -72 -47 l-48 -47 -32 24 c-199 148
-443 302 -642 406 -395 205 -721 282 -944 224z m348 -107 c263 -52 661 -249
1052 -520 76 -52 138 -98 138 -102 0 -3 -77 -83 -171 -177 l-172 -172 -126
127 c-199 200 -466 410 -862 678 -211 142 -230 157 -208 165 76 29 209 29 349
1z m1760 -938 l355 -355 -313 -312 -312 -313 -360 360 -360 360 307 307 c170
170 312 308 318 308 6 0 170 -160 365 -355z m380 -690 c254 -359 447 -733 522
-1015 26 -98 31 -133 31 -240 1 -88 -3 -135 -14 -158 l-14 -34 -140 209 c-268
399 -543 746 -729 919 l-95 89 172 173 c94 94 175 172 179 172 3 0 43 -52 88
-115z m-1082 -8 l112 -112 -825 -825 -825 -825 -115 115 -115 115 822 822
c453 453 825 823 828 823 3 0 56 -51 118 -113z m-1725 -1725 l247 -247 -358
-357 c-196 -196 -367 -361 -379 -367 -31 -15 -109 -14 -141 3 -15 8 -100 88
-188 178 -145 146 -163 167 -169 205 -14 85 -9 91 373 476 196 196 359 357
362 357 3 0 116 -111 253 -248z"/>
<path d="M3299 3672 c-160 -111 -184 -131 -187 -157 -4 -31 17 -55 48 -55 10
0 85 47 169 105 83 58 155 105 159 105 4 0 50 -42 101 -94 l94 -94 -107 -154
c-86 -123 -106 -159 -104 -183 4 -41 49 -58 78 -29 48 48 250 350 250 374 0
20 -33 59 -143 168 -79 78 -150 142 -158 142 -9 0 -98 -57 -200 -128z"/>
</g>
</svg>
